<?xml version="1.0" encoding="utf-8"?>
<!-- Generator: Adobe Illustrator 17.0.0, SVG Export Plug-In . SVG Version: 6.00 Build 0)  -->
<!DOCTYPE svg PUBLIC "-//W3C//DTD SVG 1.1//EN" "http://www.w3.org/Graphics/SVG/1.1/DTD/svg11.dtd">
<svg version="1.1" id="Ebene_1" xmlns="http://www.w3.org/2000/svg" xmlns:xlink="http://www.w3.org/1999/xlink" x="0px" y="0px"
	 width="214px" height="56px" viewBox="0 0 214 56" enable-background="new 0 0 214 56" xml:space="preserve">
<path fill="#FFFFFF" d="M65.6,15.597c1.719-0.248,3.457-0.23,5.19-0.218c2.835-0.027,5.852,0.205,8.303,1.775
	c2.875,1.978,4.847,5.324,4.9,8.846c-0.007,1.441-0.007,2.882-0.002,4.324c0.16,3.085-1.117,6.193-3.343,8.326
	c-1.427,1.563-3.51,2.311-5.549,2.645c-2.574,0.647-5.246,0.31-7.869,0.368c-2.532-0.363-5.254-0.787-7.255-2.52
	c-1.613-1.481-2.868-3.399-3.397-5.538c-0.515-2.063-0.52-4.208-0.493-6.319c0.069-2.252,0.392-4.577,1.59-6.53
	c0.903-1.428,2.014-2.779,3.472-3.669C62.491,16.255,64.045,15.824,65.6,15.597L65.6,15.597z M71.452,21.183
	c0.145,0.616,0.663,1.117,0.649,1.775c0.178,1.579-1.749,2.794-3.134,2.099c-1.271-0.484-1.601-2.177-0.827-3.23
	c0.542-0.624-0.118-1.621-0.892-1.487c-1.405,0.14-2.817,0.375-4.159,0.836c0.272,1.512,0.616,3.038,0.54,4.583
	c-0.107,0.705-1.041,1.051-1.606,0.649c-0.68-0.426-1.599-0.553-2.29-0.083c-0.722,0.509-1.289,1.458-0.97,2.355
	c0.268,0.615,0.634,1.331,1.376,1.447c0.827,0.272,1.563-0.243,2.266-0.596c0.571-0.16,0.894,0.433,1.229,0.769
	c-0.062,1.626-0.379,3.223-0.723,4.809c1.407,0.437,2.873,0.635,4.336,0.767c0.578,0.092,1.118-0.382,1.086-0.977
	c-0.147-0.705-0.721-1.294-0.629-2.05c-0.025-1.307,1.32-2.222,2.536-2.17c0.97,0.141,1.849,0.926,2.039,1.898
	c0.156,0.854-0.352,1.592-0.687,2.328c0.183,0.412,0.379,1.015,0.946,0.964c1.592-0.018,3.163-0.343,4.692-0.774
	c-0.363-1.492-0.671-3.002-0.823-4.53c-0.069-0.789,0.906-1.68,1.655-1.144c0.722,0.493,1.677,0.741,2.484,0.279
	c0.705-0.451,1.235-1.312,1.082-2.172c-0.221-1.419-2.005-2.373-3.256-1.548c-0.616,0.495-1.559,0.444-1.987-0.266
	c-0.205-1.651,0.15-3.308,0.482-4.924c-1.512-0.274-3.036-0.649-4.583-0.573C71.798,20.234,71.475,20.729,71.452,21.183
	L71.452,21.183z"/>
<path fill="#FFFFFF" d="M0,40.774V16.216h8.653c4.382,0,7.915,1.289,7.915,6.26v2.835c0,2.982-2.357,5.669-5.522,6.185
	c-0.847,0.147-1.289,0.147-6.038,0.147v9.131H0z M5.007,27.997h3.535c1.657,0,3.167-0.332,3.167-2.687v-2.799
	c0-2.429-1.584-2.761-3.167-2.761H5.007V27.997z"/>
<path fill="#FFFFFF" d="M18.56,40.774V16.216h8.799c4.382,0,7.917,1.289,7.917,6.26v2.835c0,1.951-0.7,3.461-2.282,4.822
	l1.767,10.641h-5.154l-1.436-9.167c-0.553,0.038-0.553,0.038-4.603,0.038v9.131H18.56C18.56,40.775,18.56,40.774,18.56,40.774z
	 M23.568,27.997h3.682c1.621,0,3.093-0.332,3.093-2.687v-2.799c0-2.429-1.546-2.761-3.093-2.761h-3.682V27.997z"/>
<path fill="#FFFFFF" d="M37.931,40.774V16.179h14.763v3.829h-9.829v6.332h9.021v3.867h-9.021v6.774h9.829v3.792L37.931,40.774
	L37.931,40.774z"/>
<path fill="#FFFFFF" d="M103.553,34.367c0,4.713-2.982,6.774-6.959,6.774c-3.018,0-5.154-0.185-7.804-0.368v-3.829
	c0,0,4.675,0.442,7.585,0.442c1.472,0,2.172-0.772,2.172-2.614c0-4.565-11.009-4.896-11.009-12.26c0-4.75,2.946-6.774,6.959-6.774
	c4.122,0,6.075,0.185,7.842,0.332v3.903c0,0-4.86-0.517-7.585-0.517c-1.436,0-2.246,0.7-2.246,2.32
	C92.507,25.9,103.553,26.489,103.553,34.367z"/>
<path fill="#FFFFFF" d="M116.592,37.681c1.583-0.036,3.203-0.147,4.896-0.257v2.908c-2.319,0.442-4.603,0.847-7.916,0.772
	c-5.007-0.074-8.54-1.914-8.54-11.339c0-8.21,0.442-13.843,8.504-13.879c0.257,0,4.418,0.074,7.953,0.553v3.239
	c-4.307-0.332-6.296-0.295-6.847-0.295c-4.271,0-4.677,2.871-4.677,10.531C109.965,36.945,112.285,37.902,116.592,37.681z"/>
<path fill="#FFFFFF" d="M123.702,40.774V16.216h8.799c4.382,0,7.917,1.289,7.917,6.26v2.835c0,1.951-0.7,3.461-2.282,4.822
	l1.768,10.641h-5.154l-1.436-9.167c-0.553,0.038-0.553,0.038-4.603,0.038v9.131h-5.009L123.702,40.774L123.702,40.774z
	 M128.709,27.997h3.682c1.621,0,3.093-0.332,3.093-2.687v-2.799c0-2.429-1.546-2.761-3.093-2.761h-3.682V27.997z"/>
<path fill="#FFFFFF" d="M143.074,40.774V16.179h14.763v3.829h-9.829v6.332h9.021v3.867h-9.021v6.774h9.829v3.792L143.074,40.774
	L143.074,40.774z"/>
<path fill="#FFFFFF" d="M160.565,40.774V16.179h14.763v3.829H165.5v6.332h9.021v3.867H165.5v6.774h9.829v3.792L160.565,40.774
	L160.565,40.774z"/>
<path fill="#FFFFFF" d="M190.17,40.774l-7.289-15.206v15.206h-4.824V16.179h5.449l7.474,15.831V16.179h4.934v24.594
	C195.915,40.774,190.17,40.774,190.17,40.774z"/>
</svg>
